<svg width="33" height="32" viewBox="0 0 33 32" fill="none" xmlns="http://www.w3.org/2000/svg">
<g clip-path="url(#clip0_1102_1197)">
<path d="M29.6631 3.64999H28.8994C27.6529 3.64999 26.5438 4.21925 25.8464 5.09726H25.8443C24.5963 5.09726 23.4864 5.66748 22.7893 6.54694V6.54452C20.6834 6.54452 18.9705 8.16778 18.9705 10.1627V13.6433L16.6284 15.8317L14.2862 13.6433V10.1627C14.2862 8.16778 12.5733 6.54452 10.4674 6.54452V6.54694C9.77029 5.66748 8.66045 5.09726 7.41237 5.09726H7.41034C6.71293 4.21925 5.6038 3.64999 4.35735 3.64999H3.5936V15.0169L9.00511 21.1137H8.17613V28.35H25.0806V21.1137H24.2516L29.6631 15.0169V3.64999ZM12.7587 10.1627V12.3558C12.2927 12.0894 11.7718 11.9207 11.2312 11.8613V8.71542C11.2312 8.50509 11.2109 8.29861 11.1746 8.09792C12.0928 8.3811 12.7587 9.19929 12.7587 10.1627ZM8.17613 6.66851C9.06514 6.96722 9.70364 7.77185 9.70364 8.71542V11.9823C9.34002 12.0833 8.99437 12.2351 8.67817 12.4329L8.17613 11.9578V6.66851ZM15.8646 26.9027H9.70364V22.5609H15.8646V26.9027ZM15.8646 21.1137H11.001L5.12111 14.4896V5.22129C6.01012 5.51986 6.64862 6.32454 6.64862 7.26816V12.5574L11.4547 17.1111L12.5351 16.0878L9.79575 13.4924C10.1002 13.3538 10.4358 13.2811 10.7836 13.2811C11.3957 13.2811 11.971 13.5068 12.4038 13.9169L15.8646 17.1507V21.1137ZM23.5531 8.71542C23.5531 7.77185 24.1916 6.96722 25.0806 6.66851V11.9578L24.5785 12.4329C24.2623 12.2351 23.9167 12.0833 23.5531 11.9823V8.71542ZM20.498 10.1627C20.498 9.19934 21.1639 8.3811 22.0821 8.09792C22.0449 8.30188 22.026 8.50845 22.0256 8.71542V11.8613C21.4849 11.9207 20.964 12.0894 20.498 12.3558V10.1627ZM23.5531 26.9027H17.3921V22.5609H23.5531V26.9027ZM28.1356 14.4896L22.2557 21.1137H17.3921V17.1507L20.8529 13.9169C21.2857 13.5068 21.861 13.2811 22.4731 13.2811C22.8209 13.2811 23.1565 13.3538 23.461 13.4924L20.7216 16.0878L21.802 17.1111L26.6081 12.5575V7.26816C26.6081 6.32459 27.2466 5.51996 28.1356 5.22124V14.4896Z" fill="#8789A3"/>
<path d="M20.498 24.0082H22.0256V25.4555H20.498V24.0082Z" fill="#8789A3"/>
<path d="M11.2311 24.0082H12.7587V25.4555H11.2311V24.0082Z" fill="#8789A3"/>
</g>
<defs>
<clipPath id="clip0_1102_1197">
<rect width="26.0695" height="24.7" fill="white" transform="translate(3.5936 3.64999)"/>
</clipPath>
</defs>
</svg>
