<svg width="33" height="32" viewBox="0 0 33 32" fill="none" xmlns="http://www.w3.org/2000/svg">
<g clip-path="url(#clip0_1102_1193)">
<path d="M13.9517 21.745H18.5247C18.6736 20.3855 19.365 19.2635 20.4874 18.0387C20.6149 17.9007 21.4259 17.0581 21.5218 16.9382C22.3185 15.9402 22.8179 14.7369 22.9624 13.4669C23.1069 12.1968 22.8907 10.9117 22.3387 9.75939C21.7867 8.60713 20.9214 7.63462 19.8423 6.95386C18.7632 6.2731 17.5143 5.91178 16.2394 5.91151C14.9645 5.91124 13.7155 6.27202 12.6361 6.95232C11.5567 7.63261 10.6909 8.60475 10.1385 9.75678C9.58597 10.9088 9.36925 12.1939 9.51324 13.464C9.65723 14.7341 10.1561 15.9376 10.9524 16.9359C11.0494 17.0569 11.8627 17.9007 11.9879 18.0375C13.1114 19.2635 13.8028 20.3855 13.9517 21.745ZM18.4942 24.007H13.9822V25.138H18.4942V24.007ZM9.19267 18.3519C8.1303 17.0211 7.4645 15.4164 7.27197 13.7227C7.07944 12.029 7.368 10.3152 8.10443 8.77882C8.84085 7.24238 9.99517 5.94579 11.4344 5.0384C12.8737 4.131 14.5393 3.64972 16.2394 3.64999C17.9396 3.65027 19.605 4.13208 21.044 5.03994C22.4829 5.9478 23.6368 7.24476 24.3728 8.78143C25.1087 10.3181 25.3967 12.032 25.2037 13.7256C25.0106 15.4192 24.3443 17.0237 23.2815 18.3542C22.5821 19.2273 20.7502 20.614 20.7502 22.3105V25.138C20.7502 25.7379 20.5125 26.3133 20.0895 26.7375C19.6664 27.1617 19.0926 27.4 18.4942 27.4H13.9822C13.3839 27.4 12.81 27.1617 12.3869 26.7375C11.9639 26.3133 11.7262 25.7379 11.7262 25.138V22.3105C11.7262 20.614 9.89316 19.2273 9.19267 18.3519ZM17.3662 12.7014H20.1862L15.1102 19.4875V14.9634H12.2902L17.3662 8.17289V12.7026V12.7014Z" fill="#8789A3"/>
</g>
<defs>
<clipPath id="clip0_1102_1193">
<rect width="32.0856" height="30.4" fill="white" transform="translate(0.19519 0.799988)"/>
</clipPath>
</defs>
</svg>
