<svg width="33" height="32" viewBox="0 0 33 32" fill="none" xmlns="http://www.w3.org/2000/svg">
<g clip-path="url(#clip0_1102_1203)">
<g clip-path="url(#clip1_1102_1203)">
<path d="M23.8361 24.366V23.4335C23.8361 21.9482 22.9648 20.6128 21.5627 19.9484L18.9009 18.6875V13.9778C18.9009 12.7363 18.2917 11.5994 17.2723 10.8716C17.3255 10.5973 17.5026 10.3665 17.7329 10.2939C19.4158 9.76336 20.5459 8.27745 20.5459 6.59624C20.5459 4.18796 18.2748 2.36352 15.7484 2.75275C13.7947 3.05346 12.3206 4.77788 12.3206 6.76306V9.39709C10.2706 11.4523 9.0306 14.2368 9.0306 17.2389V21.6405C9.0306 22.8071 9.37397 23.9234 10.0149 24.8865C8.47793 25.4514 7.38559 26.8677 7.38559 28.5209V29.3002H23.0134C24.374 29.3002 25.4812 28.2512 25.4812 26.9623C25.4817 26.4288 25.3288 25.9052 25.039 25.4478C24.7492 24.9904 24.3334 24.6164 23.8361 24.366ZM20.9863 21.425C21.7337 21.8453 22.1909 22.6002 22.1909 23.4335V23.8029L20.3277 23.2143L20.9863 21.425ZM13.9659 6.76306C13.9659 5.53385 14.8458 4.47084 16.0127 4.29103C17.5911 4.04753 18.9009 5.19839 18.9009 6.59624C18.9015 7.0872 18.7388 7.56585 18.4359 7.96419C18.133 8.36254 17.7054 8.66031 17.2137 8.81521C16.5644 9.0198 16.0598 9.49632 15.8017 10.1017L13.9659 9.23188V6.76306ZM10.6756 17.2389C10.6756 14.7911 11.6112 12.4789 13.3216 10.6695L15.8917 11.8868C16.7333 12.2851 17.2559 13.0869 17.2559 13.9779V19.6507L19.5047 20.7163L18.767 22.7218L15.6108 21.7247V14.3895H13.9658V22.8481L16.4573 23.635C15.3603 24.789 13.6235 25.2535 12.0043 24.7423L11.9522 24.7257C11.128 23.8834 10.6756 22.7954 10.6756 21.6405V17.2389ZM23.0134 27.7416H9.17152C9.49779 26.8693 10.356 26.2339 11.3747 26.1861C11.4478 26.2035 12.2193 26.5077 13.344 26.5077C15.2197 26.5077 17.0113 25.6494 18.1168 24.1589L22.838 25.6498C23.1288 25.7415 23.3818 25.9176 23.561 26.1532C23.7402 26.3888 23.8365 26.6719 23.8362 26.9623C23.8362 27.3919 23.4672 27.7416 23.0135 27.7416H23.0134Z" fill="#8789A3"/>
</g>
</g>
<defs>
<clipPath id="clip0_1102_1203">
<rect width="32.0856" height="30.4" fill="white" transform="translate(0.390381 0.799988)"/>
</clipPath>
<clipPath id="clip1_1102_1203">
<rect width="28.0749" height="26.6" fill="white" transform="translate(2.39572 2.69998)"/>
</clipPath>
</defs>
</svg>
