<svg width="33" height="32" viewBox="0 0 33 32" fill="none" xmlns="http://www.w3.org/2000/svg">
<g clip-path="url(#clip0_1102_1189)">
<path d="M24.4934 4.80667L21.5161 5.9351L20.9341 4.67419L19.6132 4.80979C18.2877 4.94534 17.1335 5.3991 16.0297 6.22489C14.9258 5.39707 13.7796 4.94373 12.4724 4.80974L11.151 4.67419L10.5695 5.9351L7.59153 4.80667L2.00535 17.1564L5.34099 18.3617V27.3254L16.0291 22.2622L26.7171 27.3254V18.3699L30.0802 17.1568L24.4934 4.80667ZM6.98535 24.8047V18.9563L13.988 21.4874L6.98535 24.8047ZM15.207 20.2601L4.19118 16.2786L8.47079 6.81742L9.90996 7.36318L6.23396 15.3288L15.207 18.5985L15.207 20.2601ZM15.207 16.9288L9.01441 14.6725C10.0723 14.1603 11.3286 14.0939 12.4751 14.5359L15.207 15.669L15.207 16.9288ZM15.207 13.9683L13.1066 13.0973C11.8054 12.5926 10.4018 12.5579 9.12797 12.9463L12.1742 6.34641C12.3434 6.38724 13.6483 6.34786 15.207 7.60103V13.9683ZM16.8511 7.60201C18.3807 6.37852 19.8246 6.36735 19.9114 6.34646L22.945 12.9207C21.7447 12.5583 20.4396 12.6072 19.1752 13.0973L16.8511 13.9989V7.60201ZM16.8511 15.6826L19.7978 14.5394C20.912 14.1069 22.0747 14.1635 23.0838 14.6662L16.8511 16.9305V15.6826ZM25.0728 24.8046L18.0718 21.4879L25.0728 18.9629V24.8046ZM16.8511 20.2612V18.5988L25.8515 15.3294L22.1749 7.36318L23.6143 6.81747L27.8939 16.2782L16.8511 20.2612Z" fill="#672CBC"/>
</g>
<defs>
<clipPath id="clip0_1102_1189">
<rect width="28.0749" height="26.6" fill="white" transform="translate(2.00535 2.69998)"/>
</clipPath>
</defs>
</svg>
